<svg width="650" height="626" xmlns="http://www.w3.org/2000/svg" xmlns:xlink="http://www.w3.org/1999/xlink" overflow="hidden"><defs><clipPath id="clip0"><rect x="368" y="78" width="650" height="626"/></clipPath></defs><g clip-path="url(#clip0)" transform="translate(-368 -78)"><path d="M808.334 423.332C809.445 422.443 810.618 421.627 811.667 420.665 813.289 419.179 814.563 417.304 816.334 415.999 818.819 414.168 821.467 412.479 824.334 411.333 828.188 409.791 832.334 409.111 836.334 408 841.889 408.667 847.502 408.962 853 410 868.695 412.961 868.347 413.283 879.667 417.999 882.716 421.048 893.929 431.254 896.333 436.664 897.714 439.77 897.667 443.33 898.333 446.663 896.86 456.979 897.338 462.538 891.667 471.328 885.23 481.304 876.55 486.613 866.333 492.659 855.826 498.877 841.828 504.508 830.334 507.991 822.442 510.382 814.389 512.225 806.334 513.99 798.16 515.782 789.937 517.377 781.667 518.656 771.262 520.267 760.8 521.506 750.334 522.656 740.574 523.728 730.803 524.778 721 525.323 710.792 525.89 700.556 525.767 690.334 525.989 668.907 526.941 647.809 528.128 626.334 527.989 603.219 527.84 580.112 527.1 557.001 526.656 547.001 525.989 536.972 525.666 527.001 524.656 519.403 523.887 511.848 522.689 504.334 521.323 497.059 520 475.118 515.237 467.001 511.99 463.213 510.476 459.786 508.164 456.334 505.991 451.341 502.847 446.063 498.597 442.334 493.992 440.511 491.74 439.179 489.132 437.668 486.659 436.733 485.131 435.707 483.64 435.001 481.993 434.364 480.506 434.112 478.882 433.668 477.327 432.967 471.726 432.605 472.952 433.668 467.994 434.052 466.203 434.069 464.239 435.001 462.662 437.014 459.256 439.115 455.629 442.334 453.329 443.89 452.218 445.362 450.98 447.001 449.996 450.989 447.603 455.271 446.129 459.668 444.663 468.678 441.66 468.988 441.522 479.001 440.664 483.214 440.303 487.446 440.232 491.668 439.997L503.001 439.33 519.001 438.664 534.334 439.33C541.222 439.586 548.12 439.592 555.001 439.997 563.236 440.481 571.436 441.448 579.667 441.997 588.105 442.559 596.567 442.72 605.001 443.33 615.646 444.1 657.101 447.997 667.001 449.33 679.492 451.011 691.827 453.766 704.334 455.329 773.765 464.007 720.399 453.543 789.667 466.661 804.825 469.532 819.821 473.234 835 475.994 846.719 478.124 858.591 479.331 870.333 481.327 880.817 483.109 891.198 485.46 901.667 487.326 913.644 489.46 925.662 491.352 937.667 493.326 941.885 494.019 946.186 494.289 950.333 495.325L953 495.992" stroke="#7F7F7F" stroke-width="8" stroke-miterlimit="8" fill="none" fill-rule="evenodd"/><text fill="#548235" font-family="Brush Script MT,Brush Script MT_MSFontService,sans-serif" font-style="italic" font-weight="400" font-size="265" transform="translate(528 389)">J<tspan fill="#7F7F7F" font-size="265" x="44.16" y="68">a</tspan><tspan fill="#7F7F7F" font-size="265" x="135.68" y="68">m</tspan></text><path d="M953.718 492.615 1012.19 506.47 952.568 498.974Z" stroke="#7F7F7F" stroke-width="1.33333" stroke-miterlimit="8" fill="#7F7F7F" fill-rule="evenodd"/></g></svg>